<svg width="378" height="378" viewBox="0 0 378 378" fill="none" xmlns="http://www.w3.org/2000/svg">
<path d="M83.2386 187.041V270.28H70.9977L71.0602 270.191C73.117 267.279 80.7702 256.443 78.8319 244.329C72.4666 249.225 72.9562 248.736 61.6946 252.653C67.407 247.104 78.8319 232.578 78.8319 218.868C75.078 222.295 66.3951 229.15 61.6946 229.15C66.7542 222.459 78.1464 204.668 83.2386 187.041Z" fill="#EFF4F0"/>
<path d="M83.2384 187.041V270.28H95.4794L95.4168 270.191C93.36 267.279 85.7068 256.443 87.6452 244.329C94.0104 249.225 93.5208 248.736 104.782 252.653C99.07 247.104 87.6452 232.578 87.6452 218.868C91.399 222.295 100.082 229.15 104.782 229.15C99.7229 222.459 88.3307 204.668 83.2384 187.041Z" fill="#EFF4F0"/>
<path d="M153.746 187.041V270.28H141.505L141.568 270.191C143.625 267.279 151.278 256.443 149.339 244.329C142.974 249.225 143.464 248.736 132.202 252.653C137.915 247.104 149.339 232.578 149.339 218.868C145.586 222.295 136.903 229.15 132.202 229.15C137.262 222.459 148.654 204.668 153.746 187.041Z" fill="#EFF4F0"/>
<path d="M153.746 187.041V270.28H165.987L165.924 270.191C163.868 267.279 156.214 256.443 158.153 244.329C164.518 249.225 164.028 248.736 175.29 252.653C169.578 247.104 158.153 232.578 158.153 218.868C161.907 222.295 170.59 229.15 175.29 229.15C170.23 222.459 158.838 204.668 153.746 187.041Z" fill="#EFF4F0"/>
<path d="M224.254 187.041V270.28H212.013L212.076 270.191C214.132 267.279 221.786 256.443 219.847 244.329C213.482 249.225 213.972 248.736 202.71 252.653C208.422 247.104 219.847 232.578 219.847 218.868C216.093 222.295 207.41 229.15 202.71 229.15C207.77 222.459 219.162 204.668 224.254 187.041Z" fill="#EFF4F0"/>
<path d="M224.254 187.041V270.28H236.495L236.432 270.191C234.375 267.279 226.722 256.443 228.661 244.329C235.026 249.225 234.536 248.736 245.798 252.653C240.085 247.104 228.661 232.578 228.661 218.868C232.414 222.295 241.097 229.15 245.798 229.15C240.738 222.459 229.346 204.668 224.254 187.041Z" fill="#EFF4F0"/>
<path d="M294.762 187.041V270.28H282.521L282.583 270.191C284.64 267.279 292.293 256.443 290.355 244.329C283.99 249.225 284.479 248.736 273.218 252.653C278.93 247.104 290.355 232.578 290.355 218.868C286.601 222.295 277.918 229.15 273.218 229.15C278.277 222.459 289.67 204.668 294.762 187.041Z" fill="#EFF4F0"/>
<path d="M294.761 187.041V270.28H307.002L306.94 270.191C304.883 267.279 297.23 256.443 299.168 244.329C305.533 249.225 305.044 248.736 316.305 252.653C310.593 247.104 299.168 232.578 299.168 218.868C302.922 222.295 311.605 229.15 316.305 229.15C311.246 222.459 299.854 204.668 294.761 187.041Z" fill="#EFF4F0"/>
<path d="M308.471 168.925C302.922 172.679 291.628 181.166 290.844 185.083C295.904 182.471 306.513 177.542 308.471 178.718C310.654 180.027 328.019 190.29 332.451 197.011C329.125 189.98 321.062 177.319 308.471 168.925Z" fill="#EFF4F0"/>
<path d="M186.552 98.4171C186.552 122.409 207.117 152.963 205.158 175.29C208.749 166.15 214.853 145.324 210.544 135.14C226.376 149.176 259.312 179.109 264.404 186.552C246.288 159.622 205.354 104.293 186.552 98.4171Z" fill="#EFF4F0"/>
<path d="M186.552 97.4378C167.13 118.655 127.306 166.673 123.389 189C135.14 171.863 161.091 138.665 170.883 142.974C180.011 146.99 180.489 155.006 179.455 159.248C184.377 141.936 192.33 106.682 186.552 97.4378Z" fill="#EFF4F0"/>
<path fill-rule="evenodd" clip-rule="evenodd" d="M378 189C378 293.382 293.382 378 189 378C84.6182 378 0 293.382 0 189C0 84.6182 84.6182 0 189 0C293.382 0 378 84.6182 378 189ZM189 354.497C280.401 354.497 354.497 280.402 354.497 189C354.497 97.5983 280.401 23.5026 189 23.5026C97.5981 23.5026 23.5024 97.5983 23.5024 189C23.5024 280.402 97.5981 354.497 189 354.497Z" fill="#EFF4F0"/>
<path d="M103.314 125.837C84.8706 141.832 47.9846 177.053 47.9846 189.979C55.6556 182.308 74.2292 165.889 87.1556 161.58C94.2013 166.904 108.006 178.415 109.118 183.493C108.777 176.039 107.17 130.122 103.314 125.837Z" fill="#EFF4F0"/>
<path fill-rule="evenodd" clip-rule="evenodd" d="M104.782 103.803C97.3612 112.152 66.6718 145.457 43.155 170.917C51.8451 98.3571 113.609 42.1088 188.51 42.1088C266.78 42.1088 330.705 103.53 334.713 180.803C322.365 169.055 307.002 154.987 307.002 157.174C307.002 159.916 291.66 172.352 283.989 178.228C277.33 177.445 216.256 105.435 186.552 69.5285C183.81 76.5793 154.072 112.943 139.546 130.244C133.671 131.027 113.922 112.943 104.782 103.803ZM279.093 149.829C293.696 149.829 305.533 137.991 305.533 123.389C305.533 108.786 293.696 96.9482 279.093 96.9482C264.49 96.9482 252.653 108.786 252.653 123.389C252.653 137.991 264.49 149.829 279.093 149.829Z" fill="#EFF4F0"/>
<circle cx="280.072" cy="123.389" r="15.6684" fill="#EFF4F0"/>
<path fill-rule="evenodd" clip-rule="evenodd" d="M79.9504 284.969C84.2864 289.842 88.9442 294.424 93.8904 298.679H183.124C187.992 298.679 191.938 302.625 191.938 307.492C191.938 312.36 187.992 316.306 183.124 316.306H119.42C140.102 327.547 163.805 333.932 189 333.932C216.313 333.932 241.874 326.428 263.732 313.368H233.067C228.2 313.368 224.254 309.422 224.254 304.554C224.254 299.687 228.2 295.741 233.067 295.741H287.422C291.147 292.336 294.694 288.74 298.049 284.969H79.9504Z" fill="#EFF4F0"/>
</svg>
