<svg width="80" height="80" viewBox="0 0 80 80" fill="none" xmlns="http://www.w3.org/2000/svg">
<path d="M40 73.3333C58.4095 73.3333 73.3333 58.4095 73.3333 40C73.3333 21.5905 58.4095 6.66663 40 6.66663C21.5905 6.66663 6.66667 21.5905 6.66667 40C6.66667 58.4095 21.5905 73.3333 40 73.3333Z" stroke="#FFFEFD" stroke-width="4.5" stroke-linecap="round" stroke-linejoin="round"/>
<path d="M26.6667 10H30C23.5 29.4667 23.5 50.5333 30 70H26.6667" stroke="#FFFEFD" stroke-width="4.5" stroke-linecap="round" stroke-linejoin="round"/>
<path d="M50 10C56.5 29.4667 56.5 50.5333 50 70" stroke="#FFFEFD" stroke-width="4.5" stroke-linecap="round" stroke-linejoin="round"/>
<path d="M10 53.3333V50C29.4667 56.5 50.5333 56.5 70 50V53.3333" stroke="#FFFEFD" stroke-width="4.5" stroke-linecap="round" stroke-linejoin="round"/>
<path d="M10 30C29.4667 23.5 50.5333 23.5 70 30" stroke="#FFFEFD" stroke-width="4.5" stroke-linecap="round" stroke-linejoin="round"/>
</svg>
