<svg width="80" height="80" viewBox="0 0 80 80" fill="none" xmlns="http://www.w3.org/2000/svg">
<path d="M35.8333 8.16653C38.1333 6.19986 41.9 6.19986 44.2333 8.16653L49.5 12.7002C50.5 13.5669 52.3666 14.2668 53.7 14.2668H59.3667C62.9 14.2668 65.8 17.1666 65.8 20.6999V26.3668C65.8 27.6668 66.5 29.5668 67.3666 30.5668L71.9 35.8334C73.8667 38.1334 73.8667 41.9001 71.9 44.2334L67.3666 49.4999C66.5 50.4999 65.8 52.3666 65.8 53.7V59.3669C65.8 62.9002 62.9 65.8 59.3667 65.8H53.7C52.4 65.8 50.5 66.4999 49.5 67.3666L44.2333 71.8998C41.9333 73.8665 38.1667 73.8665 35.8333 71.8998L30.5667 67.3666C29.5667 66.4999 27.7 65.8 26.3667 65.8H20.6C17.0667 65.8 14.1667 62.9002 14.1667 59.3669V53.6666C14.1667 52.3666 13.4667 50.4999 12.6334 49.4999L8.13335 44.2001C6.20002 41.9001 6.20002 38.1667 8.13335 35.8667L12.6334 30.5668C13.4667 29.5668 14.1667 27.7002 14.1667 26.4002V20.6999C14.1667 17.1666 17.0667 14.2668 20.6 14.2668H26.3667C27.6667 14.2668 29.5667 13.5669 30.5667 12.7002L35.8333 8.16653Z" stroke="#FFFEFD" stroke-width="4.5" stroke-linecap="round" stroke-linejoin="round"/>
<path d="M32.9668 49.4L37.8 53.1333C38.4334 53.7666 39.8334 54.0667 40.7667 54.0667H46.6667C48.5334 54.0667 50.5667 52.6668 51.0334 50.8001L54.7667 39.4C55.5333 37.2333 54.1334 35.3334 51.8001 35.3334H45.5668C44.6334 35.3334 43.8667 34.567 44.0001 33.467L44.7667 28.467C45.0667 27.067 44.1334 25.5002 42.7334 25.0335C41.5001 24.5669 39.9334 25.2001 39.3001 26.1334L32.9 35.6333" stroke="#FFFEFD" stroke-width="4.5" stroke-miterlimit="10"/>
<path d="M25 49.3999V34.1333C25 31.9333 25.9333 31.1666 28.1333 31.1666H29.7C31.8667 31.1666 32.8334 31.9333 32.8334 34.1333V49.3999C32.8334 51.5665 31.9 52.3666 29.7 52.3666H28.1333C25.9333 52.3666 25 51.5999 25 49.3999Z" stroke="#FFFEFD" stroke-width="4.5" stroke-linecap="round" stroke-linejoin="round"/>
</svg>
