<svg width="143" height="143" viewBox="0 0 143 143" fill="none" xmlns="http://www.w3.org/2000/svg">
<path d="M63.072 7.48227C67.6919 3.5319 75.2578 3.5319 79.9447 7.48227L90.5237 16.5889C92.5324 18.3298 96.2818 19.7356 98.96 19.7356H110.342C117.44 19.7356 123.265 25.5603 123.265 32.6576V44.0405C123.265 46.6517 124.671 50.4683 126.412 52.4769L135.518 63.0556C139.468 67.6755 139.468 75.2416 135.518 79.9285L126.412 90.5072C124.671 92.5158 123.265 96.2654 123.265 98.9436V110.327C123.265 117.424 117.44 123.248 110.342 123.248H98.96C96.3487 123.248 92.5324 124.654 90.5237 126.395L79.9447 135.501C75.3248 139.451 67.7589 139.451 63.072 135.501L52.4931 126.395C50.4845 124.654 46.7349 123.248 44.0567 123.248H32.4733C25.376 123.248 19.551 117.424 19.551 110.327V98.8766C19.551 96.2653 18.145 92.5158 16.4711 90.5072L7.43205 79.8615C3.54864 75.2415 3.54864 67.7425 7.43205 63.1226L16.4711 52.4769C18.145 50.4683 19.551 46.7188 19.551 44.1075V32.6576C19.551 25.5603 25.376 19.7356 32.4733 19.7356H44.0567C46.6679 19.7356 50.4845 18.3298 52.4931 16.5889L63.072 7.48227Z" stroke="#FFFEFD" stroke-width="4.5" stroke-linecap="round" stroke-linejoin="round"/>
</svg>
