<svg width="42" height="48" viewBox="0 0 42 48" fill="none" xmlns="http://www.w3.org/2000/svg">
<path d="M40.9754 15.6878C38.5169 4.87023 29.0808 0 20.7921 0C20.7921 0 20.7921 0 20.7687 0C12.5033 0 3.04384 4.84681 0.585313 15.6643C-2.15419 27.7462 5.24481 37.9784 11.9414 44.4174C14.4233 46.8057 17.6077 47.9998 20.7921 47.9998C23.9765 47.9998 27.1608 46.8057 29.6194 44.4174C36.3159 37.9784 43.7149 27.7697 40.9754 15.6878ZM20.7921 27.4184C16.7179 27.4184 13.4165 24.117 13.4165 20.0429C13.4165 15.9687 16.7179 12.6673 20.7921 12.6673C24.8662 12.6673 28.1677 15.9687 28.1677 20.0429C28.1677 24.117 24.8662 27.4184 20.7921 27.4184Z" fill="#DF6D2D"/>
</svg>
