<svg width="41" height="40" viewBox="0 0 41 40" fill="none" xmlns="http://www.w3.org/2000/svg">
<path d="M35.9167 30.7834L33.1667 31.4334C32.55 31.5834 32.0667 32.05 31.9333 32.6667L31.35 35.1167C31.0333 36.45 29.3333 36.8667 28.45 35.8167L23.4667 30.0834C23.0667 29.6167 23.2833 28.8834 23.8833 28.7334C26.8333 28.0167 29.4833 26.3667 31.4333 24.0167C31.75 23.6334 32.3167 23.5834 32.6667 23.9334L36.3667 27.6334C37.6333 28.9 37.1833 30.4834 35.9167 30.7834Z" fill="#FFFEFD"/>
<path d="M5 30.7834L7.75 31.4334C8.36666 31.5834 8.85 32.05 8.98333 32.6667L9.56666 35.1167C9.88333 36.45 11.5833 36.8667 12.4667 35.8167L17.45 30.0834C17.85 29.6167 17.6333 28.8834 17.0333 28.7334C14.0833 28.0167 11.4333 26.3667 9.48333 24.0167C9.16666 23.6334 8.6 23.5834 8.25 23.9334L4.55 27.6334C3.28333 28.9 3.73333 30.4834 5 30.7834Z" fill="#FFFEFD"/>
<path d="M20.5 3.33337C14.05 3.33337 8.83334 8.55004 8.83334 15C8.83334 17.4167 9.55001 19.6334 10.7833 21.4834C12.5833 24.15 15.4333 26.0334 18.75 26.5167C19.3167 26.6167 19.9 26.6667 20.5 26.6667C21.1 26.6667 21.6833 26.6167 22.25 26.5167C25.5667 26.0334 28.4167 24.15 30.2167 21.4834C31.45 19.6334 32.1667 17.4167 32.1667 15C32.1667 8.55004 26.95 3.33337 20.5 3.33337ZM25.6 14.6334L24.2167 16.0167C23.9833 16.25 23.85 16.7 23.9333 17.0334L24.3333 18.75C24.65 20.1 23.9333 20.6334 22.7333 19.9167L21.0667 18.9334C20.7667 18.75 20.2667 18.75 19.9667 18.9334L18.3 19.9167C17.1 20.6167 16.3833 20.1 16.7 18.75L17.1 17.0334C17.1667 16.7167 17.05 16.25 16.8167 16.0167L15.4 14.6334C14.5833 13.8167 14.85 13 15.9833 12.8167L17.7667 12.5167C18.0667 12.4667 18.4167 12.2 18.55 11.9334L19.5333 9.96671C20.0667 8.90004 20.9333 8.90004 21.4667 9.96671L22.45 11.9334C22.5833 12.2 22.9333 12.4667 23.25 12.5167L25.0333 12.8167C26.15 13 26.4167 13.8167 25.6 14.6334Z" fill="#FFFEFD"/>
</svg>
