<svg width="56" height="56" viewBox="0 0 56 56" fill="none" xmlns="http://www.w3.org/2000/svg">
<path d="M49.5834 43.0967L45.7334 44.0067C44.8701 44.2167 44.1934 44.87 44.0067 45.7333L43.1901 49.1633C42.7467 51.03 40.3667 51.6133 39.1301 50.1433L32.1534 42.1167C31.5934 41.4633 31.8967 40.4367 32.7367 40.2267C36.8667 39.2233 40.5767 36.9133 43.3067 33.6233C43.7501 33.0867 44.5434 33.0167 45.0334 33.5067L50.2134 38.6867C51.9867 40.46 51.3567 42.6767 49.5834 43.0967Z" fill="#DF6D2D"/>
<path d="M6.29989 43.0967L10.1499 44.0067C11.0132 44.2167 11.6899 44.87 11.8766 45.7333L12.6932 49.1633C13.1366 51.03 15.5166 51.6133 16.7532 50.1433L23.7299 42.1167C24.2899 41.4633 23.9866 40.4367 23.1466 40.2267C19.0166 39.2233 15.3066 36.9133 12.5766 33.6233C12.1332 33.0867 11.3399 33.0167 10.8499 33.5067L5.66989 38.6867C3.89656 40.46 4.52656 42.6767 6.29989 43.0967Z" fill="#DF6D2D"/>
<path d="M28.0001 4.66667C18.9701 4.66667 11.6667 11.97 11.6667 21C11.6667 24.3833 12.6701 27.4867 14.3967 30.0767C16.9167 33.81 20.9067 36.4467 25.5501 37.1233C26.3434 37.2633 27.1601 37.3333 28.0001 37.3333C28.8401 37.3333 29.6567 37.2633 30.4501 37.1233C35.0934 36.4467 39.0834 33.81 41.6034 30.0767C43.3301 27.4867 44.3334 24.3833 44.3334 21C44.3334 11.97 37.0301 4.66667 28.0001 4.66667ZM35.1401 20.4867L33.2034 22.4233C32.8767 22.75 32.6901 23.38 32.8067 23.8467L33.3667 26.25C33.8101 28.14 32.8067 28.8867 31.1267 27.8833L28.7934 26.5067C28.3734 26.25 27.6734 26.25 27.2534 26.5067L24.9201 27.8833C23.2401 28.8633 22.2367 28.14 22.6801 26.25L23.2401 23.8467C23.3334 23.4033 23.1701 22.75 22.8434 22.4233L20.8601 20.4867C19.7167 19.3433 20.0901 18.2 21.6767 17.9433L24.1734 17.5233C24.5934 17.4533 25.0834 17.08 25.2701 16.7067L26.6467 13.9533C27.3934 12.46 28.6067 12.46 29.3534 13.9533L30.7301 16.7067C30.9167 17.08 31.4067 17.4533 31.8501 17.5233L34.3467 17.9433C35.9101 18.2 36.2834 19.3433 35.1401 20.4867Z" fill="#DF6D2D"/>
</svg>
