<svg width="80" height="80" viewBox="0 0 80 80" fill="none" xmlns="http://www.w3.org/2000/svg">
<path d="M6.90002 15.3334C9.56669 3.80002 26.9334 3.80002 29.5667 15.3334C31.1334 22.1 26.8334 27.8334 23.1 31.4C20.3667 34 16.0667 33.9667 13.3334 31.4C9.63336 27.8334 5.33336 22.1 6.90002 15.3334Z" stroke="#FFFEFD" stroke-width="4.5"/>
<path d="M50.2333 55.3333C52.9 43.8 70.3666 43.8 73.0333 55.3333C74.6 62.1 70.3 67.8333 66.5333 71.4C63.8 74 59.4667 73.9667 56.7333 71.4C52.9667 67.8333 48.6666 62.1 50.2333 55.3333Z" stroke="#FFFEFD" stroke-width="4.5"/>
<path d="M40 16.6666H48.9334C55.1 16.6666 57.9667 24.3 53.3334 28.3666L26.7 51.6666C22.0667 55.7 24.9334 63.3333 31.0667 63.3333H40" stroke="#FFFEFD" stroke-width="4.5" stroke-linecap="round" stroke-linejoin="round"/>
<path d="M18.2874 18.3333H18.3259" stroke="#FFFEFD" stroke-width="4.5" stroke-linecap="round" stroke-linejoin="round"/>
<path d="M61.6207 58.3333H61.6592" stroke="#FFFEFD" stroke-width="4.5" stroke-linecap="round" stroke-linejoin="round"/>
</svg>
